<svg id="text" xmlns="http://www.w3.org/2000/svg" height="100%" viewBox="0 0 199 199"><g id="todo" fill="#fff"><path id="t" d="M28.93,93.42a3.34,3.34,0,0,1-1.11-2.51V30.29H5a3.62,3.62,0,0,1-2.61-1.07,3.33,3.33,0,0,1-1.1-2.51V5.4a3.37,3.37,0,0,1,1.1-2.52A3.64,3.64,0,0,1,5,1.83H85.63a3.68,3.68,0,0,1,2.62,1A3.39,3.39,0,0,1,89.34,5.4V26.71a3.36,3.36,0,0,1-1.09,2.51,3.66,3.66,0,0,1-2.62,1.07H62.78V90.91a3.33,3.33,0,0,1-1.1,2.51,3.63,3.63,0,0,1-2.61,1.06H31.54A3.61,3.61,0,0,1,28.93,93.42Z" transform="translate(-0.5 -0.5)"/><path id="o_t" d="M120.36,86.67q-12.26-9.12-13.08-26.6-.14-3.57-.13-11.52t.13-11.78a35.18,35.18,0,0,1,6.27-19.59,36.3,36.3,0,0,1,16-12.45Q139.76.5,153.26.5t23.67,4.23a36.3,36.3,0,0,1,16,12.45,35.18,35.18,0,0,1,6.27,19.59q.27,7.42.27,11.78t-.27,11.52q-.82,17.48-13.08,26.6t-32.89,9.14Q132.61,95.81,120.36,86.67Zm40.26-19.32q2.69-2.66,2.82-8.08c.18-5.11.27-8.87.27-11.25q0-3.84-.27-11-.13-5.41-2.89-8.07A11.37,11.37,0,0,0,146,29q-2.76,2.66-2.89,8.07-.13,3.59-.14,11t.14,11.25q.13,5.43,2.82,8.08a11.59,11.59,0,0,0,14.73,0Z" transform="translate(-0.5 -0.5)"/><path id="d" d="M1.6,197.11A3.33,3.33,0,0,1,.5,194.6V109.09a3.37,3.37,0,0,1,1.1-2.52,3.66,3.66,0,0,1,2.61-1H43.85a60.19,60.19,0,0,1,23.26,4.23,37.59,37.59,0,0,1,16.24,12.44,34.49,34.49,0,0,1,6.48,19.73q.27,7.41.27,10.06t-.27,9.66Q89,179.91,77,189t-32.42,9.13H4.21A3.63,3.63,0,0,1,1.6,197.11Zm42.25-24.75a11.06,11.06,0,0,0,7.78-2.71q3-2.72,3.23-8,.28-3.84.28-9.93c0-4.14-.09-7.41-.28-9.79q-.27-5.29-3.5-7.94a12.5,12.5,0,0,0-8.2-2.65H34.91v41Z" transform="translate(-0.5 -0.5)"/><path id="_0_d" data-name="0_d" d="M120.36,190.36q-12.26-9.12-13.08-26.6-.14-3.57-.13-11.52t.13-11.78a35.18,35.18,0,0,1,6.27-19.59,36.3,36.3,0,0,1,16-12.45q10.18-4.23,23.68-4.23t23.67,4.23a36.3,36.3,0,0,1,16,12.45,35.18,35.18,0,0,1,6.27,19.59q.27,7.42.27,11.78t-.27,11.52q-.82,17.48-13.08,26.6t-32.89,9.14Q132.61,199.5,120.36,190.36ZM160.62,171q2.69-2.65,2.82-8.07c.18-5.12.27-8.88.27-11.26q0-3.84-.27-11-.13-5.43-2.89-8.08a11.37,11.37,0,0,0-14.59,0q-2.76,2.65-2.89,8.08-.13,3.57-.14,11t.14,11.26q.13,5.42,2.82,8.07a11.59,11.59,0,0,0,14.73,0Z" transform="translate(-0.5 -0.5)"/></g></svg>